<svg width="179" height="36" viewBox="0 0 179 36" fill="none" xmlns="http://www.w3.org/2000/svg">
<path fill-rule="evenodd" clip-rule="evenodd" d="M177.099 20.7009C176.276 22.0415 175.122 23.081 173.637 23.8192C172.152 24.5574 170.442 24.9265 168.508 24.9265H160.413V7.10754H168.508C170.442 7.10754 172.152 7.47665 173.637 8.21487C175.122 8.95308 176.276 9.99252 177.099 11.3332C177.922 12.6739 178.334 14.2351 178.334 16.017C178.334 17.7989 177.922 19.3602 177.099 20.7009ZM172.568 11.9823C171.507 10.9895 170.086 10.4932 168.304 10.4932H164.537V21.5409H168.304C170.086 21.5409 171.507 21.0445 172.568 20.0518C173.629 19.059 174.159 17.7141 174.159 16.017C174.159 14.32 173.629 12.9751 172.568 11.9823ZM150.103 21.1082H141.83L140.252 24.9265H136.026L143.968 7.10754H148.041L156.009 24.9265H151.682L150.103 21.1082ZM145.979 11.155L143.154 17.9771H148.805L145.979 11.155ZM128.466 24.9265L125.029 19.9627H124.826H121.237V24.9265H117.113V7.10754H124.826C126.404 7.10754 127.774 7.37059 128.937 7.89667C130.099 8.42275 130.995 9.16945 131.622 10.1368C132.25 11.1041 132.564 12.2496 132.564 13.5733C132.564 14.897 132.246 16.0382 131.61 16.9971C130.973 17.9559 130.07 18.6899 128.899 19.199L132.895 24.9265H128.466ZM127.422 11.2695C126.777 10.735 125.836 10.4677 124.597 10.4677H121.237V16.6789H124.597C125.836 16.6789 126.777 16.4074 127.422 15.8643C128.067 15.3212 128.39 14.5576 128.39 13.5733C128.39 12.572 128.067 11.8041 127.422 11.2695ZM97.4864 7.10754H110.952V10.4168H101.585V14.286H109.858V17.4935H101.585V21.6173H111.283V24.9265H97.4864V7.10754ZM81.6784 24.9265L73.9908 7.10754H78.4455L83.8676 19.8354L89.366 7.10754H93.4644L85.7513 24.9265H81.6784ZM56.9609 7.10754H70.427V10.4168H61.0593V14.286H69.3324V17.4935H61.0593V21.6173H70.7579V24.9265H56.9609V7.10754Z" fill="white"/>
<path fill-rule="evenodd" clip-rule="evenodd" d="M4.35684 17.5012L26.1726 5.00267V0L0 15.008V20.0107L26.1726 35.0023L39.2435 27.5061V22.5038L26.1726 29.9996L4.35684 17.5012ZM34.8866 15.008L21.8 22.5038L26.1726 25.013L34.8866 20.0107V15.008ZM30.5298 7.49581L13.0867 17.5012L17.4431 20.0107L30.5298 12.4985V7.49581Z" fill="#FF8A00"/>
</svg>
